<svg version="1.2" baseProfile="tiny-ps" xmlns="http://www.w3.org/2000/svg" viewBox="0 0 50 50" width="50" height="50">
	<title>apple-svg</title>
	<style>
		tspan { white-space:pre }
		.shp0 { fill: #2b2e34 } 
	</style>
	<path class="shp0" d="M39.11 26.34C39.09 22.25 40.95 19.17 44.69 16.9C42.6 13.91 39.43 12.27 35.24 11.94C31.28 11.63 26.95 14.24 25.37 14.24C23.69 14.24 19.86 12.05 16.84 12.05C10.62 12.15 4 17.01 4 26.88C4 29.79 4.53 32.8 5.61 35.91C7.04 39.99 12.19 50.01 17.57 49.84C20.38 49.78 22.37 47.85 26.03 47.85C29.57 47.85 31.42 49.84 34.55 49.84C39.98 49.77 44.64 40.66 46 36.57C38.72 33.15 39.11 26.55 39.11 26.34L39.11 26.34ZM32.8 8.07C35.84 4.46 35.56 1.18 35.48 0C32.79 0.16 29.67 1.82 27.9 3.88C25.95 6.09 24.8 8.81 25.05 11.89C27.96 12.11 30.61 10.61 32.8 8.07L32.8 8.07Z" />
</svg>