<svg version="1.2" baseProfile="tiny-ps" xmlns="http://www.w3.org/2000/svg" viewBox="0 0 172 50" width="172" height="50">
	<title>huawei-svg</title>
	<style>
		tspan { white-space:pre }
		.shp0 { fill: #2b2e34 } 
		.shp1 { fill: #ce0e2d } 
	</style>
	<path fill-rule="evenodd" class="shp0" d="M93.57 18.26L97.38 18.25L97.39 28.85C97.39 34.23 94.43 37.32 89.27 37.32C84.16 37.32 81.23 34.29 81.22 29.01L81.22 18.28L85.02 18.28L85.03 28.89C85.03 32.02 86.58 33.7 89.32 33.7C92.07 33.7 93.58 32.06 93.58 29.01L93.57 18.26ZM72.12 25.84L72.12 18.27L75.92 18.27L75.94 37.05L72.13 37.05L72.12 29.42L63.53 29.42L63.54 37.05L59.73 37.06L59.72 18.28L63.53 18.28L63.53 25.84L72.12 25.84ZM171.19 18.21L171.2 36.96L167.45 36.96L167.44 18.21L171.19 18.21ZM152.51 33.56L162.92 33.55L162.92 36.97L148.76 36.98L148.75 18.23L162.55 18.22L162.55 21.63L152.5 21.64L152.51 25.49L159.43 25.48L159.43 28.9L152.51 28.91L152.51 33.56ZM141.71 18.22L145.66 18.22L139.15 36.99L135.97 36.99L131.7 24.67L127.45 37L124.3 37L117.75 18.24L121.8 18.24L125.95 31.14L130.2 18.22L133.3 18.22L137.58 31.13L141.71 18.22ZM110.98 18.35L119.18 37L115.19 37.01L113.5 33.1L104.91 33.11L104.79 33.38L103.21 37.01L99.32 37.02L107.58 18.25L110.9 18.25L110.98 18.35ZM111.9 29.27L109.19 22.98L106.5 29.28L106.31 29.7L112.07 29.7L111.9 29.27Z" />
	<path class="shp1" d="M22.26 35.09C22.32 35.05 22.33 34.96 22.3 34.9C21.37 32.91 20.39 30.95 19.36 29.03C18.32 27.1 17.22 25.21 16.08 23.34C14.93 21.48 13.72 19.65 12.47 17.85C11.22 16.06 9.91 14.3 8.55 12.59C7.19 10.87 4.24 16.69 4.55 20.81C4.59 21.29 4.67 21.75 4.79 22.21C4.92 22.67 5.1 23.11 5.31 23.54C5.53 23.96 5.78 24.36 6.07 24.74C6.37 25.11 6.69 25.45 7.06 25.76C10.83 29.43 19.94 34.06 22.06 35.13C22.13 35.15 22.21 35.14 22.26 35.09ZM20.85 38.23C20.83 38.15 20.75 38.09 20.66 38.09L5.49 38.63C7.13 41.56 9.91 43.84 12.79 43.14C14.79 42.64 19.29 39.49 20.78 38.41C20.89 38.32 20.85 38.24 20.85 38.23ZM21.08 36.87C21.16 36.75 21.03 36.64 21.03 36.64C14.37 32.14 1.44 25.23 1.44 25.23C1.02 26.54 0.89 27.94 1.09 29.3C1.29 30.67 1.8 31.97 2.59 33.11C3.37 34.25 4.41 35.19 5.61 35.86C6.82 36.53 8.17 36.92 9.54 36.98C9.77 37.02 18.56 36.98 20.92 36.96C20.99 36.95 21.04 36.92 21.08 36.87ZM22.07 6.02C21.41 6.07 19.63 6.49 19.63 6.49C15.61 7.53 14.66 11.19 14.66 11.19C13.93 13.48 14.67 16.02 14.67 16.02C16.02 21.97 22.62 31.77 24.04 33.82C24.14 33.93 24.22 33.89 24.22 33.89C24.3 33.86 24.36 33.8 24.36 33.7C26.55 11.81 22.07 6.02 22.07 6.02ZM27.11 33.86C27.19 33.89 27.29 33.86 27.33 33.78C28.78 31.67 35.33 21.92 36.67 15.99C36.67 15.99 37.39 13.11 36.69 11.16C36.69 11.16 35.7 7.45 31.68 6.47C31.68 6.47 30.52 6.17 29.29 6C29.29 6 24.79 11.8 27 33.69C26.99 33.77 27.04 33.83 27.11 33.86ZM30.7 38.09C30.69 38.1 30.67 38.11 30.65 38.12C30.64 38.12 30.62 38.13 30.61 38.14C30.59 38.15 30.58 38.16 30.56 38.18C30.55 38.19 30.54 38.2 30.53 38.22C30.52 38.3 30.53 38.36 30.59 38.42C32.03 39.47 36.44 42.54 38.56 43.14C38.56 43.14 42.49 44.47 45.89 38.61L30.7 38.09ZM49.93 25.16C49.93 25.16 37.04 32.11 30.37 36.62C30.3 36.67 30.26 36.75 30.29 36.84C30.29 36.84 30.36 36.96 30.45 36.96C32.84 36.96 41.87 36.96 42.11 36.92C43.01 36.86 43.89 36.65 44.72 36.32C44.72 36.32 47.94 35.29 49.6 31.63C49.6 31.63 51.08 28.65 49.93 25.16ZM29.15 35.08C29.2 35.12 29.28 35.13 29.35 35.09C31.52 34 40.56 29.4 44.3 25.74C44.3 25.74 46.67 23.83 46.79 20.76C47.05 16.5 42.77 12.56 42.77 12.56C42.77 12.56 34.88 22.16 29.08 34.84C29.08 34.86 29.08 34.88 29.08 34.9C29.08 34.92 29.08 34.94 29.09 34.97C29.09 34.99 29.1 35.01 29.11 35.03C29.12 35.05 29.14 35.07 29.15 35.08Z" />
</svg>