<svg version="1.2" baseProfile="tiny-ps" xmlns="http://www.w3.org/2000/svg" viewBox="0 0 227 50" width="227" height="50">
	<title>meizu-svg</title>
	<style>
		tspan { white-space:pre }
		.shp0 { fill: #2b2e34 } 
	</style>
	<path class="shp0" d="M4.23 26.42L4.45 8.62L6.16 6.93L7.86 5.23L31.91 5.11C55.41 5 56 5.02 57.47 5.91C58.33 6.44 59.33 7.64 59.83 8.73C60.64 10.5 60.7 11.85 60.71 27.43L60.72 44.23L52.58 44.23L52.58 28.48C52.58 14.76 52.49 12.64 51.87 12.03C51.29 11.44 49.88 11.31 43.74 11.31L36.31 11.31L36.31 44.23L28.63 44.23L28.63 11.31L21.02 11.31C14.22 11.31 13.32 11.4 12.66 12.13C11.99 12.87 11.91 14.68 11.91 28.59L11.91 44.23L7.95 44.23L4 44.23L4.23 26.43L4.23 26.42ZM72.12 43.32C71.31 42.83 70.25 41.77 69.76 40.97C68.9 39.57 68.86 38.67 68.86 24.61C68.86 10.56 68.9 9.66 69.76 8.27C70.25 7.46 71.31 6.39 72.12 5.9C73.53 5.05 74.43 5.01 91.33 5.01L109.07 5L109.07 11.31L77.95 11.31L77.24 12.31C76.73 13.04 76.53 14.42 76.53 17.27L76.53 21.22L91.95 21.34L107.37 21.46L107.37 27.77L91.95 27.89L76.53 28.01L76.53 31.96C76.53 34.8 76.73 36.19 77.24 36.91L77.95 37.91L109.07 37.91L109.07 44.23L91.33 44.22C74.43 44.22 73.53 44.18 72.12 43.32L72.12 43.32ZM117.66 24.61L117.66 5L125.8 5L125.8 44.23L117.66 44.23L117.66 24.61ZM135 43.57C133.47 42.5 132.84 40.5 133.47 38.63C134 37.01 135.68 35.42 151.76 21.28C155.25 18.21 159.19 14.71 160.52 13.51L162.93 11.31L134.39 11.31L134.39 5L170.61 5L171.93 6.32C173.55 7.93 173.7 10.17 172.31 11.93C171.8 12.58 166.26 17.62 160 23.15C153.74 28.67 147.5 34.24 146.14 35.54L143.65 37.9L158.22 37.91L172.79 37.91L172.79 44.23L154.37 44.23C138.95 44.23 135.79 44.12 135 43.57L135 43.57ZM183.14 43.2C180.05 41.14 180.03 41 180.03 22.02L180.03 5L187.72 5L187.72 20.56C187.72 35.51 187.75 36.15 188.61 37.01C189.48 37.87 190.12 37.91 201.65 37.91C212.83 37.91 213.84 37.85 214.53 37.09C215.2 36.35 215.28 34.55 215.28 20.64L215.28 5L222.96 5L222.96 22.42C222.96 39.1 222.93 39.9 222.05 41.31C220.28 44.17 219.91 44.23 201.38 44.23C184.77 44.23 184.67 44.22 183.15 43.2L183.14 43.2Z" />
</svg>