<svg version="1.2" baseProfile="tiny-ps" xmlns="http://www.w3.org/2000/svg" viewBox="0 0 219 50" width="219" height="50">
	<title>oneplus-svg</title>
	<style>
		tspan { white-space:pre }
		.shp0 { fill: #2b2e34 } 
	</style>
	<path fill-rule="evenodd" class="shp0" d="M28.71 8.29L28.71 12.76L10.41 12.76L10.41 43.45L41.34 43.45L41.34 25.22L45.71 25.22L45.71 47.8L6.04 47.8L6.04 8.29L28.71 8.29ZM45.71 1L45.71 8.29L53.03 8.29L53.03 12.76L45.71 12.76L45.71 20.04L41.34 20.04L41.34 12.76L33.9 12.76L33.9 8.29L41.34 8.29L41.34 1L45.71 1ZM24.22 37.57L24.22 25.22L20.09 25.22L20.09 22.05L20.56 22.05C21.86 22.05 22.92 21.81 23.63 21.22C24.34 20.64 24.82 19.58 24.82 18.28L28.71 18.28L28.71 37.57L24.22 37.57ZM69.44 16.05C76.29 16.05 80.66 21.22 80.66 28.17C80.66 35.1 76.29 40.16 69.44 40.16C62.59 40.16 58.23 35.1 58.23 28.17C58.23 21.22 62.59 16.05 69.44 16.05ZM69.44 19.93C65.19 19.93 62.94 23.58 62.94 28.17C62.94 32.75 65.07 36.39 69.44 36.39C73.81 36.27 75.82 32.75 75.82 28.17C75.82 23.58 73.69 19.93 69.44 19.93ZM84.67 16.52L89.51 16.52L97.3 29.45C98.01 30.75 98.96 32.75 98.96 32.75L99.07 32.75C99.07 32.75 98.96 30.4 98.96 28.74L98.96 16.52L103.56 16.52L103.56 39.68L98.96 39.68L90.92 26.87C90.22 25.69 89.27 23.69 89.27 23.69L89.16 23.69C89.16 23.69 89.27 26.17 89.27 27.69L89.27 39.68L84.67 39.68L84.67 16.52ZM108.75 16.52L125.87 16.52L125.87 20.4L113.47 20.4L113.47 25.57L124.34 25.57L124.34 29.45L113.47 29.45L113.47 35.69L125.99 35.69L125.99 39.68L108.75 39.68L108.75 16.52ZM140.87 16.52C143.59 16.52 145.59 17.34 147.01 18.64C148.3 19.93 149.13 21.81 149.13 23.93C149.13 28.28 146.18 31.22 141.34 31.22L135.67 31.22L135.67 39.57L130.84 39.57L130.84 16.52L140.87 16.52ZM135.44 27.46L140.28 27.46C142.76 27.46 144.05 26.04 144.05 24.05C144.05 21.93 142.64 20.64 140.4 20.64L135.44 20.64L135.44 27.46ZM152.44 16.52L157.16 16.52L157.16 35.69L168.02 35.69L168.02 39.68L152.44 39.68L152.44 16.52ZM170.62 16.52L175.34 16.52L175.34 32.28C175.34 34.63 176.52 36.39 179.71 36.39C182.66 36.39 184.08 34.63 184.08 32.28L184.08 16.52L188.8 16.52L188.8 32.28C188.8 37.22 185.73 40.16 179.83 40.16C173.69 40.03 170.62 37.22 170.62 32.16L170.62 16.52ZM196.71 32.52C197.07 35.33 198.6 36.39 201.91 36.39C204.26 36.39 206.39 35.57 206.39 33.45C206.39 31.22 204.15 30.75 200.61 29.92C196.48 28.99 192.58 27.92 192.58 23.11C192.58 18.52 196.36 16.16 201.44 16.16C206.62 16.16 210.05 18.75 210.41 23.34L205.92 23.34C205.68 20.99 203.8 19.81 201.44 19.81C198.95 19.81 197.19 20.87 197.19 22.52C197.19 24.4 198.84 24.99 202.26 25.69C207.1 26.75 211 27.81 211 32.86C211 37.57 207.22 40.16 201.91 40.16C195.77 40.16 192.22 37.33 192.11 32.52L196.71 32.52Z" />
</svg>