<svg version="1.2" baseProfile="tiny-ps" xmlns="http://www.w3.org/2000/svg" viewBox="0 0 172 50" width="172" height="50">
	<title>oppo-svg</title>
	<style>
		tspan { white-space:pre }
		.shp0 { fill: #2b2e34 } 
	</style>
	<path fill-rule="evenodd" class="shp0" d="M44.72 10.4L50.72 10.4L50.72 11.68C50.72 12.38 50.74 12.95 50.75 12.95C50.76 12.95 51.14 12.72 51.59 12.44C56.91 9.11 64.63 8.1 71.56 9.84C77.81 11.41 82.33 15.14 83.94 20.04C84.88 22.9 84.83 26.07 83.8 28.85C82.52 32.28 79.87 35.05 76.07 36.94C72.74 38.61 68.93 39.44 64.67 39.44C61.14 39.44 57.84 38.85 54.94 37.69C53.79 37.23 52.31 36.49 51.42 35.9L50.72 35.45L50.72 48.98L44.72 48.98L44.72 10.4ZM75.55 31.04C77.04 29.75 78.08 27.95 78.46 25.98C78.62 25.18 78.62 23.28 78.46 22.48C78 20.17 76.68 18.14 74.7 16.73C73.9 16.16 72.27 15.34 71.24 14.99C68.31 14.01 64.76 13.71 61.51 14.19C55.87 15.02 52.05 17.82 51.03 21.89C50.58 23.69 50.66 25.63 51.26 27.32C52.61 31.16 56.6 33.72 62.26 34.36C63.39 34.49 66.51 34.46 67.58 34.31C70.96 33.83 73.58 32.75 75.55 31.04ZM87.5 10.4L93.51 10.4L93.51 11.68C93.51 12.38 93.52 12.95 93.54 12.95C93.55 12.95 93.88 12.74 94.28 12.49C95.17 11.9 96.95 11.03 98.08 10.61C102.99 8.79 108.98 8.5 114.23 9.82C122.78 11.97 127.81 17.85 127.34 25.15C126.97 30.72 123.27 35.29 117.19 37.69C115.2 38.47 113.17 38.96 110.63 39.28C109.28 39.45 105.66 39.45 104.25 39.28C100.28 38.81 96.8 37.63 94.09 35.83L93.51 35.46L93.51 48.98L87.5 48.98L87.5 10.4ZM120.23 28.72C121.23 26.99 121.6 24.7 121.23 22.56C120.46 18.13 116.57 15.06 110.61 14.19C106.68 13.61 102.24 14.19 99.23 15.66C96.15 17.18 94.29 19.43 93.66 22.43C93.5 23.22 93.5 25.24 93.66 26.02C94.11 28.1 95.12 29.82 96.66 31.12C98.77 32.9 101.53 33.96 105.11 34.37C106.29 34.5 109.33 34.46 110.51 34.28C115.19 33.58 118.49 31.68 120.23 28.72ZM11.67 37.5C6.41 35.25 3.09 31.44 2.18 26.65C2.01 25.74 1.94 23.67 2.06 22.69C2.71 16.94 6.93 12.39 13.62 10.24C17.18 9.09 21.56 8.72 25.49 9.22C32.69 10.15 38.14 13.5 40.53 18.46C42.49 22.5 42.24 27.41 39.89 31.19C38.84 32.88 37.1 34.64 35.31 35.81C32.52 37.64 29.2 38.77 25.15 39.28C24.34 39.38 20.64 39.46 19.89 39.4C16.7 39.11 13.98 38.48 11.67 37.5ZM31.91 31.73C33.53 30.58 34.82 28.89 35.4 27.14C35.73 26.11 35.8 25.63 35.8 24.23C35.8 22.83 35.73 22.36 35.4 21.33C34.29 17.96 31.08 15.45 26.59 14.46C22.65 13.59 18.05 13.89 14.65 15.24C12.2 16.22 10.25 17.8 9.12 19.74C7.91 21.82 7.63 24.64 8.41 27.07C9.23 29.69 11.42 31.89 14.44 33.11C16.08 33.78 18.11 34.26 20.12 34.42C20.89 34.48 23.35 34.46 24.15 34.37C27.29 34.04 29.93 33.14 31.91 31.73ZM147.14 39.3C143.82 38.99 140.34 37.93 137.78 36.48C134.32 34.52 131.91 31.73 130.82 28.42C130.07 26.17 129.94 23.65 130.46 21.33C131.24 17.82 133.37 14.85 136.68 12.64C141.05 9.73 147.48 8.44 153.67 9.23C158.82 9.88 163.07 11.77 166.02 14.72C168.27 16.96 169.56 19.6 169.94 22.7C170.03 23.5 170.02 25.13 169.9 25.98C169.09 32.12 164.23 36.82 156.78 38.65C154.51 39.21 153.1 39.37 150.44 39.4C149.29 39.41 148.24 39.41 148.12 39.4C147.99 39.38 147.55 39.34 147.14 39.3ZM161.35 30.64C162.75 29.23 163.57 27.68 163.89 25.8C164.02 25.04 164.02 23.42 163.89 22.62C163.17 18.31 159.37 15.18 153.74 14.27C152.39 14.05 151.49 13.98 150.08 13.98C143.77 13.98 138.87 16.36 136.99 20.35C136.43 21.54 136.16 22.76 136.16 24.23C136.16 26.17 136.62 27.71 137.64 29.24C139.51 32.05 143.06 33.85 147.75 34.37C148.72 34.47 151.09 34.49 152.07 34.4C156.04 34.03 159.27 32.72 161.35 30.64Z" />
</svg>