<svg version="1.2" baseProfile="tiny-ps" xmlns="http://www.w3.org/2000/svg" viewBox="0 0 175 50" width="175" height="50">
	<title>realme-svg</title>
	<style>
		tspan { white-space:pre }
		.shp0 { fill: #2b2e34 } 
	</style>
	<path fill-rule="evenodd" class="shp0" d="M56.06 39.02C53.14 36.15 51.59 32.28 51.59 27.87C51.59 18.98 57.99 12.47 66.7 12.48C69 12.49 71.29 13.02 73.31 14.03C74.27 14.52 75.51 15.34 76.16 15.93C76.41 16.16 76.63 16.34 76.66 16.34C76.69 16.34 76.71 15.59 76.71 14.67L76.71 13L80.48 13L80.48 42.74L76.71 42.74L76.71 39.29L76.37 39.58C73.84 41.67 71.54 42.69 68.48 43.07C67.82 43.15 65.61 43.17 65.01 43.11C61.37 42.68 58.43 41.34 56.06 39.02ZM68.49 39.17C73.05 38.41 76.21 35.18 77.11 30.39C77.32 29.27 77.32 26.48 77.12 25.38C76.88 24.1 76.56 23.12 76.03 22.04C74.46 18.84 71.7 16.91 68.01 16.42C66.74 16.25 64.87 16.36 63.65 16.67C60.1 17.58 57.36 20.16 56.11 23.75C55.6 25.25 55.49 25.93 55.49 27.87C55.49 29.35 55.52 29.7 55.69 30.47C56.72 35.09 60.03 38.37 64.45 39.18C65.36 39.34 67.49 39.34 68.49 39.17ZM25.26 40.58C24.15 39.84 22.4 38.09 21.65 36.95C19.79 34.15 18.9 30.8 19.03 27.1C19.15 23.72 20.09 20.85 21.91 18.27C22.18 17.89 22.85 17.12 23.42 16.55C25.44 14.52 27.88 13.23 30.8 12.65C31.99 12.41 34.63 12.33 35.86 12.48C41.52 13.19 45.75 16.98 47.21 22.63C47.57 24 47.72 25.17 47.79 26.86L47.84 28.33L22.84 28.33L22.9 29.21C23.14 33.12 25.42 36.62 28.8 38.33C30.4 39.14 31.93 39.49 33.85 39.49C37.14 39.49 39.62 38.48 41.69 36.28C42.21 35.74 43.38 34.17 43.58 33.75C43.61 33.7 46.88 35.84 46.88 35.91C46.88 36.11 45.53 37.89 44.8 38.66C42.07 41.52 38.69 42.92 34.31 43.03C33.51 43.05 32.52 43.03 32.1 42.99C29.59 42.72 27.26 41.9 25.26 40.58ZM43.91 24.63C43.2 20.16 40.16 16.92 35.85 16.08C34.95 15.89 32.61 15.92 31.7 16.11C29.53 16.57 27.72 17.51 26.22 18.95C24.63 20.47 23.57 22.39 23.01 24.76L22.94 24.99L43.97 24.99L43.91 24.63ZM157.35 42.98C150.79 42.37 145.91 37.92 144.59 31.34C143.69 26.85 144.52 22.18 146.84 18.73C149.06 15.42 152.22 13.38 156.31 12.6C157.46 12.37 160.89 12.37 161.99 12.6C164.71 13.15 166.97 14.34 168.85 16.21C171.55 18.91 173 22.72 173 27.18L173 28.33L160.55 28.35L148.09 28.38L148.12 29.07C148.21 31.77 149.48 34.59 151.48 36.52C153.04 38.01 154.92 38.96 157.12 39.35C158.1 39.53 160.2 39.52 161.18 39.35C164.23 38.82 166.43 37.31 168.32 34.51C168.59 34.1 168.85 33.79 168.88 33.8C168.99 33.82 171.91 35.7 172.03 35.82C172.16 35.95 171.36 37.15 170.42 38.25C167.42 41.74 162.64 43.47 157.35 42.98ZM168.97 23.83C167.94 19.53 164.91 16.67 160.7 16.03C159.09 15.78 157.18 15.95 155.55 16.48C152.04 17.63 149.32 20.54 148.39 24.15C148.29 24.52 148.23 24.85 148.23 24.9C148.23 24.97 151.23 24.99 158.68 24.99L169.14 24.99L169.14 24.76C169.14 24.62 169.06 24.21 168.97 23.83ZM1 12.91L18.84 12.91L18.84 16.42L4.82 16.47L4.77 42.74L1 42.74L1 12.91ZM87.09 1L90.94 1L90.94 42.65L87.09 42.65L87.09 1ZM97.55 12.91L101.32 12.91L101.33 16.81L101.65 16.42C102.7 15.15 103.78 14.25 105 13.65C106.46 12.91 107.74 12.6 109.55 12.51C111.64 12.41 113.34 12.74 115 13.55C116.75 14.41 118.01 15.65 119.2 17.67C119.29 17.81 119.34 17.77 119.65 17.32C121.27 14.95 123.68 13.38 126.7 12.73C127.9 12.47 130.53 12.44 131.69 12.68C133.82 13.11 135.48 13.96 136.87 15.35C138.34 16.82 139.24 18.59 139.8 21.08L140.02 22.12L140.06 32.39L140.08 42.64L136.3 42.64L136.3 33.49C136.3 27.77 136.27 23.99 136.21 23.44C135.86 19.92 134.04 17.37 131.19 16.43C130.92 16.34 130.63 16.26 130.34 16.2C130.06 16.14 129.77 16.09 129.48 16.06C129.19 16.03 128.89 16.02 128.6 16.02C128.3 16.02 128.01 16.04 127.72 16.07C124.05 16.47 121.67 18.46 120.84 21.82C120.67 22.54 120.66 22.74 120.64 32.6L120.6 42.64L116.84 42.64L116.84 33.66C116.84 28.29 116.8 24.24 116.75 23.59C116.4 19.28 114.03 16.54 110.24 16.08C106.78 15.65 103.19 17.68 101.89 20.77C101.34 22.07 101.38 21.4 101.34 32.51L101.31 42.65L97.55 42.65L97.55 12.91Z" />
</svg>