<svg version="1.2" baseProfile="tiny-ps" xmlns="http://www.w3.org/2000/svg" viewBox="0 0 173 50" width="173" height="50">
	<title>redmi_xiaomi-svg</title>
	<style>
		tspan { white-space:pre }
		.shp0 { fill: #2b2e34 } 
	</style>
	<path fill-rule="evenodd" class="shp0" d="M90.28 47.62C80.71 47.62 73.78 41.97 73.78 30.91C73.78 20.27 79.69 14.2 88.59 14.2C90.64 14.2 92.86 14.56 95.22 15.22L95.22 3.68L101.59 2L101.59 45.34C97.63 46.84 93.77 47.62 90.28 47.62ZM95.28 20.64C93.17 19.97 91.25 19.61 89.56 19.61C83.9 19.61 80.65 23.34 80.65 30.91C80.65 37.88 84.32 42.09 90.46 42.09C91.91 42.09 93.53 41.85 95.28 41.37L95.28 20.64ZM157.34 6.93C157.34 4.64 159.14 2.78 161.55 2.78C163.9 2.78 165.76 4.64 165.76 6.93C165.76 9.27 163.9 11.07 161.55 11.07C159.14 11.07 157.34 9.27 157.34 6.93ZM69.08 33.38L47.1 33.38C47.1 39.15 51.2 42.09 56.44 42.09C60.59 42.09 63.3 41.43 67.69 39.69L67.69 44.91C64.44 46.54 60.35 47.62 56.38 47.62C46.63 47.62 40.19 42.34 40.19 30.67C40.19 19.79 46.51 14.2 55.3 14.2C64.86 14.2 69.38 20.82 69.08 33.38ZM158.3 16L164.68 16L164.68 46.3L158.3 46.3L158.3 16ZM145.64 26.52C145.64 21.54 143.35 19.55 139.62 19.55C137.28 19.55 135.1 20.57 133.3 22.14L133.3 46.3L126.92 46.3L126.92 26.52C126.92 21.54 123.85 19.55 119.82 19.55C117.59 19.55 115.84 20.09 114.53 21.11L114.53 46.3L108.14 46.3L108.14 17.81C111.15 15.4 115.97 14.2 120.48 14.2C124.69 14.2 128.19 15.35 130.47 17.69C133.66 15.46 137.28 14.2 141 14.2C147.99 14.2 152.03 17.87 152.03 25.32L152.03 46.3L145.64 46.3L145.64 26.52ZM55.3 19.49C50.48 19.49 47.1 22.91 47.1 28.39L63.12 28.39C63.12 23.27 60.59 19.49 55.3 19.49ZM30.01 46.3L21.41 27.73L13.88 27.73L13.88 46.3L7.5 46.3L7.5 2.78L22.91 2.78C31.04 2.78 36.27 7.77 36.27 14.8C36.27 20.27 33.08 24.6 27.96 26.77L37.53 46.3L30.01 46.3ZM29.53 15.22C29.53 10.71 26.4 8.07 20.98 8.07L13.88 8.07L13.88 22.43L20.98 22.43C26.4 22.43 29.53 19.79 29.53 15.22Z" />
</svg>