<svg version="1.2" baseProfile="tiny-ps" xmlns="http://www.w3.org/2000/svg" viewBox="0 0 176 50" width="176" height="50">
	<title>samsung-svg</title>
	<style>
		tspan { white-space:pre }
		.shp0 { fill: #2b2e34 } 
	</style>
	<path fill-rule="evenodd" class="shp0" d="M96.65 23.76C99.8 25.65 99.52 29.25 99.52 29.25L99.52 31.62C99.14 37.49 91.01 37.32 91.01 37.32C82.51 37.32 82.7 31.76 82.7 31.76L82.7 28.85L89.32 28.85L89.32 30.86C89.32 32.56 90.97 32.64 90.97 32.64C92.77 32.71 92.93 30.97 92.93 30.97C93.17 29.28 91.3 28.21 91.3 28.21C89.45 27.26 86.36 25.61 86.36 25.61C84.84 24.62 84.23 23.71 84.23 23.71C83.13 22.34 83.2 20.21 83.2 20.21L83.2 18.37C83.2 15.81 83.89 15.07 83.89 15.07C85.65 11.78 91.78 12.19 91.78 12.19C99.57 12.4 99.09 17.23 99.09 17.23L99.1 20.18L92.9 20.18L92.9 18.18C92.9 16.76 91.16 16.66 91.16 16.66C89.83 16.66 89.52 17.56 89.52 17.56C88.78 18.93 90.04 20.12 90.04 20.12C90.69 20.82 93.91 22.32 93.91 22.32C94.96 22.72 96.65 23.76 96.65 23.76ZM64.86 12.87L75.13 12.87L75.8 36.51L69.62 36.51L69.48 18.8L69.05 18.8L65.83 36.51L59.37 36.51L56.12 18.79L55.64 18.79L55.56 36.51L49.43 36.51L49.94 12.99L60.31 12.99L62.3 25.86L62.78 25.86L64.86 12.87ZM28.32 12.98L38.75 12.98L42.83 36.48L36.22 36.48L33.81 18.26L33.26 18.26L30.84 36.48L24.23 36.48L28.32 12.98ZM167.01 23.43L175 23.43L175 30.75C175 30.75 174.92 32.83 174.61 33.48C174.61 33.48 174.33 34.61 173.23 35.41C173.23 35.41 172.05 36.66 168.11 37.09C167.96 37.1 159.12 37.76 158.93 31.32L158.93 18.87C158.93 18.87 157.93 12 166.9 12C166.9 12 172.74 11.82 174.29 15.27C174.29 15.27 175.05 16.2 174.85 20.02L168.62 20.02L168.62 18.06C168.62 18.06 168.61 16.48 167 16.48C167 16.48 165.31 16.55 165.31 17.87L165.31 30.75C165.31 30.75 165.24 32.48 167.14 32.48C167.14 32.48 168.7 32.45 168.7 30.63L168.7 26.91L167.01 26.91L167.01 23.43ZM146.38 27.26L145.94 12.88L152.16 12.88L152.16 36.51L144.84 36.51L138.29 22.13L138.02 22.13L138.39 36.51L132.24 36.51L132.24 12.89L139.79 12.89L146.11 27.26L146.38 27.26ZM117.23 30.62L117.23 12.9L123.82 12.9L123.82 30.84C123.82 37.3 115.61 37.21 115.61 37.21C106.16 37.21 106.85 30.53 106.85 30.53L106.85 12.9L113.59 12.9L113.61 30.67C113.61 32.67 115.51 32.56 115.51 32.56C117.31 32.56 117.23 30.62 117.23 30.62ZM15.46 23.76C18.61 25.65 18.33 29.25 18.33 29.26L18.33 31.62C17.95 37.49 9.83 37.33 9.83 37.33C1.33 37.33 1.52 31.76 1.52 31.76L1.52 28.85L8.13 28.85L8.13 30.86C8.13 32.56 9.78 32.64 9.78 32.64C11.59 32.71 11.74 30.97 11.74 30.97C11.99 29.28 10.12 28.21 10.12 28.21C8.26 27.26 5.18 25.61 5.18 25.61C3.66 24.62 3.04 23.71 3.04 23.71C1.95 22.34 2.02 20.21 2.02 20.21L2.02 18.37C2.02 15.81 2.71 15.08 2.71 15.08C2.72 15.06 2.73 15.04 2.74 15.02C4.43 12.45 9.15 12.19 9.15 12.19C10 12.15 10.59 12.19 10.59 12.19C18.38 12.4 17.9 17.23 17.9 17.23L17.92 20.18L11.71 20.18L11.71 18.18C11.71 16.76 9.98 16.66 9.98 16.66C8.64 16.66 8.34 17.56 8.34 17.56C7.6 18.93 8.86 20.12 8.86 20.12C9.5 20.83 12.73 22.32 12.73 22.32C13.77 22.72 15.46 23.76 15.46 23.76Z" />
</svg>