<svg version="1.2" baseProfile="tiny-ps" xmlns="http://www.w3.org/2000/svg" viewBox="0 0 161 50" width="161" height="50">
	<title>tcl-svg</title>
	<style>
		tspan { white-space:pre }
		.shp0 { fill: #2b2e34 } 
	</style>
	<g >
		<path fill-rule="evenodd" class="shp0" d="M108.18 29.57C107.78 36.77 103.52 41.79 99.46 44.45C94.46 47.73 87.34 48.94 80.13 48.37C74.8 47.95 68.95 46.31 64.93 42.93L63.41 41.54C54.12 32.84 55.01 15.99 63.38 7.91C67.2 4.22 72.75 1.59 80.09 1.12C88.04 0.61 93.91 1.65 99.53 5.21C101.9 6.7 103.94 8.69 105.45 11.07C106.68 13 108.3 17.09 108.09 19.97C103.85 20.12 99.44 19.94 95.18 19.99C94.33 19.99 94.39 20.1 94.23 19.32C93.66 16.45 92.2 14.15 89.46 12.83C86.51 11.42 81.72 11.3 78.55 12.54C75.57 13.72 73.3 16.03 72.1 19C69.69 24.97 71.21 33.73 78.1 36.78C81.22 38.16 85.83 38.18 89.04 36.87C91.83 35.73 93.57 33.45 94.23 30.69C94.5 29.62 94.29 29.67 94.68 29.57L108.18 29.57ZM3.05 3.38L53.16 3.42L53.16 15.88L35.85 15.9L35.82 46.79L20.35 46.78L20.33 15.87L3 15.86L3.05 3.38ZM116.49 46.78C116.28 45.53 116.43 42.76 116.43 41.36C116.43 37.52 116.28 4.5 116.5 3.35L131.45 3.39L131.45 34.85L155.86 34.87C156.03 35.4 156.05 45.83 155.9 46.8L116.49 46.78ZM116.48 46.78L116.49 46.78L116.49 46.78L116.48 46.78ZM108.18 29.57L108.18 29.57C108.18 29.56 108.18 29.56 108.18 29.56L108.18 29.57Z" />
	</g>
</svg>