<svg version="1.2" baseProfile="tiny-ps" xmlns="http://www.w3.org/2000/svg" viewBox="0 0 175 175" width="175" height="175">
	<title>vivo-svg</title>
	<style>
		tspan { white-space:pre }
		.shp0 { fill: #2b2e34 } 
	</style>
	<path id="Layer" fill-rule="evenodd" class="shp0" d="M173.59 94.11C173.39 96.26 172.79 98.34 171.83 100.27C170.87 102.2 169.55 103.93 167.95 105.37C166.35 106.81 164.5 107.95 162.48 108.7C160.46 109.46 158.32 109.84 156.16 109.8L145.06 109.8C138.03 109.8 132.64 110.5 127.08 105.75C124.93 103.88 123.25 101.52 122.17 98.87C121.11 96.23 120.67 93.36 120.92 90.52C121.16 87.67 122.07 84.93 123.58 82.5C125.08 80.07 127.14 78.04 129.59 76.55C130.25 76.17 130.94 75.82 131.65 75.54C132.35 75.24 133.09 74.99 133.83 74.8C134.57 74.61 135.32 74.47 136.09 74.38C136.85 74.29 137.62 74.26 138.39 74.28L149.5 74.28C150.38 74.22 151.27 74.2 152.16 74.19C153.04 74.18 153.93 74.19 154.81 74.21C155.7 74.24 156.59 74.29 157.47 74.37C158.35 74.44 159.23 74.53 160.11 74.64C160.79 74.79 161.46 74.98 162.11 75.21C162.76 75.45 163.41 75.71 164.03 76.02C164.65 76.33 165.25 76.68 165.84 77.06C166.41 77.44 166.97 77.86 167.5 78.3C168.62 79.27 169.62 80.36 170.46 81.56C171.31 82.77 172.01 84.07 172.54 85.44C173.06 86.82 173.43 88.25 173.6 89.71C173.78 91.17 173.77 92.65 173.59 94.11ZM136.66 81.14C135.72 81.28 134.8 81.55 133.93 81.95C133.06 82.34 132.25 82.86 131.51 83.47C130.78 84.08 130.14 84.8 129.6 85.59C129.06 86.38 128.64 87.23 128.33 88.14C127.81 89.57 127.57 91.09 127.66 92.61C127.73 94.13 128.13 95.62 128.81 96.98C129.5 98.34 130.46 99.55 131.62 100.53C132.79 101.51 134.15 102.23 135.61 102.66C136.22 102.76 136.82 102.84 137.44 102.89C138.04 102.95 138.66 102.99 139.27 103.02C139.88 103.05 140.5 103.05 141.11 103.05C141.72 103.03 142.34 103.02 142.94 102.97C145.56 102.97 156.34 103.28 158.06 102.97C169.64 100.89 169.72 84.22 159.03 81.45C158.42 81.36 157.81 81.28 157.21 81.22C156.59 81.16 155.98 81.13 155.37 81.1C154.75 81.08 154.15 81.07 153.53 81.09C152.92 81.09 152.31 81.12 151.69 81.16C149.16 81.16 138.19 80.86 136.61 81.16L136.66 81.14ZM68.97 79.09C68.88 78.59 68.89 78.09 69 77.6C69.11 77.12 69.33 76.65 69.63 76.26C69.92 75.86 70.3 75.52 70.73 75.27C71.17 75.02 71.64 74.86 72.14 74.8C72.61 74.76 73.08 74.79 73.53 74.89C73.99 75.01 74.42 75.19 74.83 75.44C75.22 75.69 75.58 76 75.87 76.37C76.17 76.73 76.39 77.14 76.56 77.59C78.58 80.59 80.33 83.14 82.36 86.14C84.39 89.14 86.25 91.91 88.19 94.7L90.97 98.97C91.16 99.37 91.38 99.74 91.63 100.1C91.87 100.45 92.15 100.79 92.45 101.1C92.76 101.41 93.09 101.69 93.44 101.95C93.79 102.2 94.17 102.42 94.56 102.61C96.75 103.16 97.97 101.34 98.86 99.84C99.75 98.34 100.64 97 101.64 95.55C103.58 92.75 105.53 89.78 107.44 87L113.25 78.39C113.42 77.98 113.63 77.61 113.87 77.24C114.11 76.88 114.4 76.55 114.72 76.25C115.03 75.95 115.38 75.69 115.75 75.46C116.11 75.22 116.5 75.04 116.92 74.89C117.64 74.76 118.39 74.85 119.06 75.15C119.73 75.46 120.3 75.95 120.67 76.58C121.06 77.21 121.24 77.94 121.2 78.68C121.16 79.41 120.89 80.11 120.44 80.7L110.22 95.84C108.22 98.84 106.31 101.61 104.42 104.39C103.97 105.16 103.44 105.88 102.82 106.53C102.2 107.19 101.51 107.76 100.75 108.23C100 108.72 99.19 109.11 98.34 109.4C97.5 109.69 96.61 109.87 95.72 109.95C94.79 109.98 93.86 109.89 92.95 109.69C92.04 109.48 91.17 109.16 90.33 108.74C89.5 108.31 88.73 107.78 88.05 107.16C87.35 106.54 86.73 105.83 86.22 105.05C84.33 102.64 82.11 99 80.5 96.47L71.75 83.64C71.47 83.3 71.19 82.94 70.94 82.57C70.67 82.21 70.43 81.84 70.2 81.46C69.97 81.08 69.75 80.69 69.55 80.3C69.34 79.89 69.15 79.5 68.97 79.09ZM1.03 77.52C1.15 77.03 1.35 76.57 1.66 76.18C1.95 75.77 2.33 75.44 2.76 75.19C3.19 74.94 3.67 74.78 4.17 74.72C4.63 74.69 5.1 74.72 5.55 74.83C6 74.94 6.43 75.13 6.83 75.38C7.22 75.63 7.57 75.94 7.87 76.29C8.16 76.66 8.39 77.06 8.55 77.5C13.3 84.53 18.3 92.05 23.11 98.91C23.29 99.32 23.5 99.7 23.75 100.07C24 100.43 24.29 100.77 24.6 101.08C24.91 101.4 25.25 101.67 25.62 101.92C25.98 102.17 26.38 102.38 26.78 102.55C27.23 102.55 27.68 102.48 28.12 102.34C28.55 102.2 28.96 101.99 29.34 101.73C29.71 101.47 30.05 101.16 30.33 100.8C30.61 100.44 30.84 100.03 31 99.61C31.89 98.11 32.75 96.8 33.78 95.34C35.78 92.55 37.61 90.11 39.61 87C41.61 83.89 43.41 81.28 45.45 78.3C45.6 77.9 45.81 77.52 46.05 77.15C46.3 76.79 46.59 76.46 46.91 76.16C47.22 75.87 47.58 75.61 47.95 75.39C48.33 75.17 48.73 74.99 49.14 74.86C49.62 74.78 50.11 74.79 50.59 74.9C51.06 75.02 51.51 75.22 51.91 75.51C52.3 75.79 52.63 76.16 52.88 76.58C53.13 76.99 53.3 77.46 53.36 77.95C53.33 78.41 53.26 78.86 53.15 79.31C53.04 79.76 52.89 80.2 52.7 80.62C52.51 81.04 52.28 81.45 52.02 81.82C51.76 82.2 51.47 82.56 51.14 82.89C50.14 84.39 49.14 85.78 48.22 87.16L39.47 100C36.36 104.61 33.84 109.72 27.72 109.95C20.97 110.16 18.2 105 15.41 100.66L3.78 83.55C3.48 83.21 3.21 82.86 2.95 82.5C2.69 82.14 2.44 81.77 2.21 81.39C1.98 81.01 1.75 80.62 1.56 80.22C1.35 79.82 1.17 79.41 1 79C0.91 78.51 0.92 78 1.03 77.52ZM60.5 74.84C60.84 74.77 61.2 74.75 61.54 74.79C61.89 74.82 62.23 74.91 62.55 75.04C62.88 75.18 63.17 75.37 63.44 75.59C63.71 75.81 63.95 76.07 64.14 76.36C64.3 76.72 64.44 77.1 64.54 77.48C64.65 77.87 64.73 78.25 64.78 78.65C64.83 79.05 64.85 79.44 64.85 79.84C64.84 80.24 64.81 80.64 64.75 81.03L64.75 91.66C64.75 93.53 64.91 106.3 64.59 107.41C64.38 108.06 63.99 108.65 63.47 109.09C62.95 109.52 62.31 109.81 61.64 109.91C60.97 110.01 60.28 109.91 59.66 109.64C59.03 109.37 58.49 108.92 58.11 108.36C57.95 107.99 57.8 107.62 57.7 107.23C57.58 106.85 57.5 106.46 57.45 106.06C57.39 105.66 57.37 105.27 57.37 104.87C57.38 104.46 57.41 104.06 57.47 103.66L57.47 82.45C57.47 78.66 56.89 75.64 60.45 74.89L60.5 74.84ZM60.64 62C60.81 61.95 60.99 61.93 61.17 61.93C61.34 61.94 61.52 61.98 61.69 62.06C61.85 62.12 62.01 62.21 62.14 62.34C62.27 62.46 62.38 62.59 62.47 62.75C67.28 67.55 67.39 66.89 64.28 69.86C62.05 72.09 61.41 73.34 59.72 71.64L58.41 70.34C56.28 68.3 54.89 67.55 56.55 65.92L59.34 63.3C59.42 63.18 59.51 63.05 59.61 62.93C59.7 62.81 59.81 62.69 59.92 62.58C60.03 62.47 60.15 62.37 60.27 62.28C60.38 62.17 60.51 62.09 60.64 62Z" />
</svg>