<svg version="1.2" baseProfile="tiny-ps" xmlns="http://www.w3.org/2000/svg" viewBox="0 0 50 50" width="50" height="50">
	<title>xiaomi-svg</title>
	<style>
		tspan { white-space:pre }
		.shp0 { fill: #ff6900 } 
		.shp1 { fill: #ffffff } 
	</style>
	<g id="Layer">
		<g id="Layer">
			<g id="Layer">
				<path id="路径_1_" class="shp0" d="M44 6.05C39.47 1.52 32.96 1.01 25 1.01C17.03 1.01 10.51 1.52 5.98 6.07C1.45 10.62 1 17.17 1 25.17C1 33.18 1.45 39.73 5.98 44.28C10.51 48.83 17.03 49.29 25 49.29C32.97 49.29 39.49 48.83 44.02 44.28C48.54 39.73 49 33.18 49 25.17C49 17.16 48.54 10.6 44 6.05L44 6.05Z" />
			</g>
		</g>
		<g id="Layer">
			<g id="Layer">
				<path id="形状结合" fill-rule="evenodd" class="shp1" d="M38.93 15.97C39.09 15.97 39.23 16.1 39.23 16.26L39.23 34.12C39.23 34.28 39.09 34.42 38.93 34.42L35.04 34.42C34.87 34.42 34.74 34.28 34.74 34.12L34.74 16.26C34.74 16.1 34.87 15.97 35.04 15.97L38.93 15.97ZM22.05 15.97C24.98 15.97 28.05 16.1 29.56 17.62C31.05 19.12 31.21 22.11 31.22 25.01L31.22 34.12C31.22 34.28 31.08 34.42 30.91 34.42L27.02 34.42C26.86 34.42 26.73 34.28 26.73 34.12L26.73 24.85C26.72 23.23 26.63 21.57 25.8 20.73C25.08 20.01 23.75 19.84 22.36 19.81L15.31 19.81C15.14 19.81 15.01 19.94 15.01 20.1L15.01 34.12C15.01 34.28 14.88 34.42 14.71 34.42L10.81 34.42C10.64 34.42 10.51 34.28 10.51 34.12L10.51 16.26C10.51 16.1 10.64 15.97 10.81 15.97L22.05 15.97ZM22.91 23.07C23.08 23.07 23.22 23.21 23.22 23.37L23.22 34.12C23.22 34.28 23.08 34.42 22.91 34.42L18.83 34.42C18.66 34.42 18.53 34.28 18.53 34.12L18.53 23.37C18.53 23.21 18.66 23.07 18.83 23.07L22.91 23.07Z" />
			</g>
		</g>
	</g>
</svg>